<svg viewBox="0 0 600 400" xmlns="http://www.w3.org/2000/svg">
<g transform="translate(72, 364)">
<g>
<rect fill="burlywood" height="84.15841584158416" stroke="black" width="48" x="0" y="-84.15841584158416"/>
<rect fill="burlywood" height="67.32673267326733" stroke="black" width="48" x="48" y="-67.32673267326733"/>
<rect fill="burlywood" height="198.6138613861386" stroke="black" width="48" x="96" y="-198.6138613861386"/>
<rect fill="burlywood" height="111.08910891089108" stroke="black" width="48" x="144" y="-111.08910891089108"/>
<rect fill="burlywood" height="84.15841584158416" stroke="black" width="48" x="192" y="-84.15841584158416"/>
<rect fill="burlywood" height="114.45544554455445" stroke="black" width="48" x="240" y="-114.45544554455445"/>
<rect fill="burlywood" height="127.92079207920793" stroke="black" width="48" x="288" y="-127.92079207920793"/>
<rect fill="burlywood" height="131.2871287128713" stroke="black" width="48" x="336" y="-131.2871287128713"/>
<rect fill="burlywood" height="340" stroke="black" width="48" x="384" y="-340"/>
<rect fill="burlywood" height="309.7029702970297" stroke="black" width="48" x="432" y="-309.7029702970297"/>
</g>
<g>
<g>
<line stroke="black" stroke-width="1" x1="0" x2="0" y1="0" y2="10"/>
<line stroke="black" stroke-width="1" x1="64" x2="64" y1="0" y2="10"/>
<line stroke="black" stroke-width="1" x1="128" x2="128" y1="0" y2="10"/>
<line stroke="black" stroke-width="1" x1="192" x2="192" y1="0" y2="10"/>
<line stroke="black" stroke-width="1" x1="256" x2="256" y1="0" y2="10"/>
<line stroke="black" stroke-width="1" x1="320" x2="320" y1="0" y2="10"/>
<line stroke="black" stroke-width="1" x1="384" x2="384" y1="0" y2="10"/>
<line stroke="black" stroke-width="1" x1="448" x2="448" y1="0" y2="10"/>
</g>
<line stroke="black" stroke-width="1" x1="0" x2="480" y1="0" y2="0"/>
<g>
<text font-size="12" text-anchor="middle" x="0" y="20">
3
</text>
<text font-size="12" text-anchor="middle" x="64" y="20">
23
</text>
<text font-size="12" text-anchor="middle" x="128" y="20">
43
</text>
<text font-size="12" text-anchor="middle" x="192" y="20">
63
</text>
<text font-size="12" text-anchor="middle" x="256" y="20">
83
</text>
<text font-size="12" text-anchor="middle" x="320" y="20">
103
</text>
<text font-size="12" text-anchor="middle" x="384" y="20">
123
</text>
<text font-size="12" text-anchor="middle" x="448" y="20">
143
</text>
</g>
<text font-size="12" text-anchor="middle" x="240" y="30">

</text>
</g>
<g>
<g>
<line stroke="black" stroke-width="1" x1="0" x2="-10" y1="-0" y2="-0"/>
<line stroke="black" stroke-width="1" x1="0" x2="-10" y1="-67.32673267326733" y2="-67.32673267326733"/>
<line stroke="black" stroke-width="1" x1="0" x2="-10" y1="-134.65346534653466" y2="-134.65346534653466"/>
<line stroke="black" stroke-width="1" x1="0" x2="-10" y1="-201.98019801980197" y2="-201.98019801980197"/>
<line stroke="black" stroke-width="1" x1="0" x2="-10" y1="-269.3069306930693" y2="-269.3069306930693"/>
<line stroke="black" stroke-width="1" x1="0" x2="-10" y1="-336.63366336633663" y2="-336.63366336633663"/>
</g>
<line stroke="black" stroke-width="1" x1="0" x2="0" y1="0" y2="-340"/>
<g>
<text dominant-baseline="middle" font-size="12" text-anchor="end" x="-15" y="-0">
0
</text>
<text dominant-baseline="middle" font-size="12" text-anchor="end" x="-15" y="-67.32673267326733">
20
</text>
<text dominant-baseline="middle" font-size="12" text-anchor="end" x="-15" y="-134.65346534653466">
40
</text>
<text dominant-baseline="middle" font-size="12" text-anchor="end" x="-15" y="-201.98019801980197">
60
</text>
<text dominant-baseline="middle" font-size="12" text-anchor="end" x="-15" y="-269.3069306930693">
80
</text>
<text dominant-baseline="middle" font-size="12" text-anchor="end" x="-15" y="-336.63366336633663">
100
</text>
</g>
<text font-size="12" text-anchor="middle" transform="rotate(-90 -36 -170)" x="-36" y="-182">

</text>
</g>
</g>
</svg>